<svg width="60" height="20" viewBox="0 0 60 20" xmlns="http://www.w3.org/2000/svg" xmlns:sketch="http://www.bohemiancoding.com/sketch/ns"><title>sprite-files</title><desc>Created with Sketch.</desc><g sketch:type="MSPage" fill="#fff"><path d="M9.036 10v5.003c0 .551.444.997 1 .997.552 0 1-.453 1-.997v-5.003l1.792 1.792c.391.391 1.026.39 1.414.002l.088-.088c.39-.39.393-1.019 0-1.412l-4.294-4.294-4.294 4.294c-.39.39-.388 1.024 0 1.412l.088.088c.39.39 1.029.383 1.414-.002l1.792-1.792zm-7.036-9.008c0-.548.456-.992.995-.992h9.005v6h6v12.993c0 .556-.445 1.007-1.001 1.007h-13.998c-.553 0-1.001-.455-1.001-.992v-18.016zm11-.992l5 5h-5v-5z" sketch:type="MSShapeGroup"/><path d="M29.036 10v5.003c0 .551.444.997 1 .997.552 0 1-.453 1-.997v-5.003l1.792 1.792c.391.391 1.026.39 1.414.002l.088-.088c.39-.39.393-1.019 0-1.412l-4.294-4.294-4.294 4.294c-.39.39-.388 1.024 0 1.412l.088.088c.39.39 1.029.383 1.414-.002l1.792-1.792zm-9.036-8.007c0-.549.451-.993.991-.993h4.018c.547 0 1.303.313 1.702.711l.578.578c.393.393 1.167.711 1.713.711h9.995c.554 0 1.002.445 1.002 1.001v13.998c0 .553-.455 1.001-.992 1.001h-18.016c-.548 0-.992-.445-.992-.993v-16.013z" sketch:type="MSShapeGroup"/><path d="M51 10v-4h-2v4h-4v2h4v4h2v-4h4v-2h-4zm-11-8.007c0-.549.451-.993.991-.993h4.018c.547 0 1.303.313 1.702.711l.578.578c.393.393 1.167.711 1.713.711h9.995c.554 0 1.002.445 1.002 1.001v13.998c0 .553-.455 1.001-.992 1.001h-18.016c-.548 0-.992-.445-.992-.993v-16.013z" sketch:type="MSShapeGroup"/></g></svg>