<?xml version="1.0" encoding="UTF-8" standalone="no"?>
<svg width="384px" height="32px" viewBox="0 0 384 32" version="1.1" xmlns="http://www.w3.org/2000/svg" xmlns:xlink="http://www.w3.org/1999/xlink" xmlns:sketch="http://www.bohemiancoding.com/sketch/ns">
    <!-- Generator: Sketch 3.3.3 (12072) - http://www.bohemiancoding.com/sketch -->
    <title>sprite-files-type</title>
    <desc>Created with Sketch.</desc>
    <defs></defs>
    <g id="Page-1" stroke="none" stroke-width="1" fill="none" fill-rule="evenodd" sketch:type="MSPage">
        <g id="files-type-copy" sketch:type="MSArtboardGroup">
            <g id="folder" sketch:type="MSLayerGroup" transform="translate(0.000000, 1.000000)">
                <path d="M1,1 L13,1 L13,5 L31,5 L31,29 L1,29 L1,1 Z" id="Rectangle-32" fill="#E2F1FF" sketch:type="MSShapeGroup"></path>
                <path d="M0,0.998153687 C0,0.446888627 0.448999333,0 1.00472096,0 L12.965738,0 C13.5206301,0 13.9737333,0.443353176 13.9779134,1.0093689 L14,4 L31.0066023,4 C31.5552407,4 32,4.45127869 32,5.00329963 L32,28.9967004 C32,29.5508075 31.5476379,30 31.0072136,30 L0.992786407,30 C0.444485615,30 0,29.5526348 0,29.0018463 L0,0.998153687 Z M1,1 L13,1 L13,5 L31,5 L31,29 L1,29 L1,1 Z M1,8 L31,8 L31,9 L1,9 L1,8 Z" id="Rectangle-30" fill="#6EB4F7" sketch:type="MSShapeGroup"></path>
            </g>
            <g id="file" sketch:type="MSLayerGroup" transform="translate(35.000000, 0.000000)">
                <path d="M1,1 L19,1 L25,7 L25,31 L1,31 L1,1 Z" id="Rectangle-108" fill="#FFFFFF" sketch:type="MSShapeGroup"></path>
                <path d="M18,1 L1,1 L1,31 L25,31 L25,8 L18,8 L18,1 Z M19,1.5 L24.5,7 L19,7 L19,1.5 Z M0,0.992786407 C0,0.444485615 0.450925395,0 0.994771168,0 L19,0 L26,7 L26,31.004543 C26,31.5543187 25.5487213,32 24.9967004,32 L1.00329963,32 C0.449192547,32 0,31.5476379 0,31.0072136 L0,0.992786407 Z" id="Rectangle-20" fill="#B2C5DB" sketch:type="MSShapeGroup"></path>
            </g>
            <g id="zip" sketch:type="MSLayerGroup" transform="translate(67.000000, 0.000000)">
                <rect id="Rectangle-108-Copy" fill="#FFFFFF" sketch:type="MSShapeGroup" x="1" y="1" width="24" height="30"></rect>
                <path d="M0,0.992786407 C0,0.444485615 0.451278687,0 1.00329963,0 L24.9967004,0 C25.5508075,0 26,0.452362061 26,0.992786407 L26,31.0072136 C26,31.5555144 25.5487213,32 24.9967004,32 L1.00329963,32 C0.449192547,32 0,31.5476379 0,31.0072136 L0,0.992786407 Z M1,1 L25,1 L25,31 L1,31 L1,1 Z" id="Rectangle-20" fill="#B2C5DB" sketch:type="MSShapeGroup"></path>
                <path d="M11,1 L13,1 L13,3 L11,3 L11,1 Z M11,5 L13,5 L13,7 L11,7 L11,5 Z M11,9 L13,9 L13,11 L11,11 L11,9 Z M13,3 L15,3 L15,5 L13,5 L13,3 Z M13,7 L15,7 L15,9 L13,9 L13,7 Z M11,12 L15,12 L15,19 L11,19 L11,12 Z M12,13 L14,13 L14,15 L12,15 L12,13 Z" id="Rectangle-109" fill="#4F5B69" sketch:type="MSShapeGroup"></path>
            </g>
            <g id="code" sketch:type="MSLayerGroup" transform="translate(99.000000, 0.000000)">
                <g id="file-copy" sketch:type="MSShapeGroup">
                    <path d="M1,1 L19,1 L25,7 L25,31 L1,31 L1,1 Z" id="Rectangle-108" fill="#FFFFFF"></path>
                    <path d="M18,1 L1,1 L1,31 L25,31 L25,8 L18,8 L18,1 Z M19,1.5 L24.5,7 L19,7 L19,1.5 Z M0,0.992786407 C0,0.444485615 0.450925395,0 0.994771168,0 L19,0 L26,7 L26,31.004543 C26,31.5543187 25.5487213,32 24.9967004,32 L1.00329963,32 C0.449192547,32 0,31.5476379 0,31.0072136 L0,0.992786407 Z" id="Rectangle-20" fill="#B2C5DB"></path>
                </g>
                <g transform="translate(5.000000, 11.000000)" stroke="#9C59FF" stroke-width="2" sketch:type="MSShapeGroup">
                    <path d="M4,11 L0,7 L4,3" id="Path-5" stroke-linejoin="round"></path>
                    <path d="M16,11 L12,7 L16,3" id="Path-5-Copy" stroke-linejoin="round" transform="translate(14.000000, 7.000000) scale(-1, 1) translate(-14.000000, -7.000000) "></path>
                    <path d="M6,14 L10,0" id="Path-7"></path>
                </g>
            </g>
            <g id="text" sketch:type="MSLayerGroup" transform="translate(131.000000, 0.000000)">
                <g id="file-copy-2" sketch:type="MSShapeGroup">
                    <path d="M1,1 L19,1 L25,7 L25,31 L1,31 L1,1 Z" id="Rectangle-108" fill="#FFFFFF"></path>
                    <path d="M18,1 L1,1 L1,31 L25,31 L25,8 L18,8 L18,1 Z M19,1.5 L24.5,7 L19,7 L19,1.5 Z M0,0.992786407 C0,0.444485615 0.450925395,0 0.994771168,0 L19,0 L26,7 L26,31.004543 C26,31.5543187 25.5487213,32 24.9967004,32 L1.00329963,32 C0.449192547,32 0,31.5476379 0,31.0072136 L0,0.992786407 Z" id="Rectangle-20" fill="#B2C5DB"></path>
                </g>
                <path d="M6,11 L20,11 L20,13 L6,13 L6,11 Z M6,15 L18,15 L18,17 L6,17 L6,15 Z M6,19 L20,19 L20,21 L6,21 L6,19 Z M6,23 L16,23 L16,25 L6,25 L6,23 Z" fill="#76A2ED" sketch:type="MSShapeGroup"></path>
            </g>
            <g id="keynote" sketch:type="MSLayerGroup" transform="translate(160.000000, 2.000000)">
                <path d="M1,1 L25,1 L31,7 L31,27 L1,27 L1,1 Z" id="Rectangle-108-Copy-7" fill="#FFFFFF" sketch:type="MSShapeGroup"></path>
                <path d="M24,1 L1,1 L1,27 L31,27 L31,8 L24,8 L24,1 Z M25,1.5 L30.5,7 L25,7 L25,1.5 Z M0,0.996534824 C0,0.446163838 0.455262884,1.77635684e-15 0.995457033,1.77635684e-15 L25,1.77635684e-15 L32,7 L32,27.0012539 C32,27.5528461 31.5476379,28 31.0072136,28 L0.992786407,28 C0.444485615,28 0,27.5601869 0,27.0034652 L0,0.996534824 Z" id="Rectangle-20" fill="#B2C5DB" sketch:type="MSShapeGroup"></path>
                <path d="M9.99621582,16 L25.9962158,16 L25.9962158,18 L9.99621582,18 L9.99621582,16 Z M9.99621582,20 L25.9962158,20 L25.9962158,22 L9.99621582,22 L9.99621582,20 Z M6,16 L8,16 L8,18 L6,18 L6,16 Z M6,20 L8,20 L8,22 L6,22 L6,20 Z M16,14 C18.209139,14 20,12.209139 20,10 L16,10 L16,6 C13.790861,6 12,7.790861 12,10 C12,12.209139 13.790861,14 16,14 Z M17,9 C17,9 16.9999999,6 17,5 C19,5 21.0000002,7 21,9 L17,9 Z" id="text" fill="#FF634C" sketch:type="MSShapeGroup"></path>
            </g>
            <g id="excel" sketch:type="MSLayerGroup" transform="translate(195.000000, 0.000000)">
                <g id="file-copy-3" sketch:type="MSShapeGroup">
                    <path d="M1,1 L19,1 L25,7 L25,31 L1,31 L1,1 Z" id="Rectangle-108" fill="#FFFFFF"></path>
                    <path d="M18,1 L1,1 L1,31 L25,31 L25,8 L18,8 L18,1 Z M19,1.5 L24.5,7 L19,7 L19,1.5 Z M0,0.992786407 C0,0.444485615 0.450925395,0 0.994771168,0 L19,0 L26,7 L26,31.004543 C26,31.5543187 25.5487213,32 24.9967004,32 L1.00329963,32 C0.449192547,32 0,31.5476379 0,31.0072136 L0,0.992786407 Z" id="Rectangle-20" fill="#B2C5DB"></path>
                </g>
                <path d="M5,9 L9,9 L9,11 L5,11 L5,9 Z M5,5 L9,5 L9,7 L5,7 L5,5 Z M5,13 L9,13 L9,15 L5,15 L5,13 Z M5,17 L9,17 L9,19 L5,19 L5,17 Z M5,21 L9,21 L9,23 L5,23 L5,21 Z M5,25 L9,25 L9,27 L5,27 L5,25 Z M11,9 L15,9 L15,11 L11,11 L11,9 Z M11,5 L15,5 L15,7 L11,7 L11,5 Z M11,13 L15,13 L15,15 L11,15 L11,13 Z M11,17 L15,17 L15,19 L11,19 L11,17 Z M11,21 L15,21 L15,23 L11,23 L11,21 Z M11,25 L15,25 L15,27 L11,27 L11,25 Z M17,13 L21,13 L21,15 L17,15 L17,13 Z M17,17 L21,17 L21,19 L17,19 L17,17 Z M17,21 L21,21 L21,23 L17,23 L17,21 Z M17,25 L21,25 L21,27 L17,27 L17,25 Z" id="spreadsheet" fill="#54C67A" sketch:type="MSShapeGroup"></path>
            </g>
            <g id="pdf" sketch:type="MSLayerGroup" transform="translate(227.000000, 0.000000)">
                <g id="file-copy-4" sketch:type="MSShapeGroup">
                    <path d="M1,1 L19,1 L25,7 L25,31 L1,31 L1,1 Z" id="Rectangle-108" fill="#FFFFFF"></path>
                    <path d="M18,1 L1,1 L1,31 L25,31 L25,8 L18,8 L18,1 Z M19,1.5 L24.5,7 L19,7 L19,1.5 Z M0,0.992786407 C0,0.444485615 0.450925395,0 0.994771168,0 L19,0 L26,7 L26,31.004543 C26,31.5543187 25.5487213,32 24.9967004,32 L1.00329963,32 C0.449192547,32 0,31.5476379 0,31.0072136 L0,0.992786407 Z" id="Rectangle-20" fill="#B2C5DB"></path>
                </g>
                <path d="M6,11 L20,11 L20,13 L6,13 L6,11 Z M6,15 L18,15 L18,17 L6,17 L6,15 Z" id="text" fill="#FF3F3F" sketch:type="MSShapeGroup"></path>
                <path d="M6.06599695,19.784 L7.96999695,19.784 C8.25266503,19.784 8.51799571,19.8119997 8.76599695,19.868 C9.01399819,19.9240003 9.22999603,20.0173327 9.41399695,20.148 C9.59799787,20.2786673 9.74332975,20.4519989 9.84999695,20.668 C9.95666415,20.8840011 10.0099969,21.1493318 10.0099969,21.464 C10.0099969,21.7680015 9.95533083,22.0319989 9.84599695,22.256 C9.73666307,22.4800011 9.58866455,22.6639993 9.40199695,22.808 C9.21532935,22.9520007 8.99933151,23.0586663 8.75399695,23.128 C8.50866239,23.1973337 8.24733167,23.232 7.96999695,23.232 L7.24199695,23.232 L7.24199695,25 L6.06599695,25 L6.06599695,19.784 Z M7.89799695,22.296 C8.53800015,22.296 8.85799695,22.0186694 8.85799695,21.464 C8.85799695,21.1919986 8.77666443,21.0000006 8.61399695,20.888 C8.45132947,20.7759994 8.21266519,20.72 7.89799695,20.72 L7.24199695,20.72 L7.24199695,22.296 L7.89799695,22.296 Z M10.9139969,19.784 L12.3859969,19.784 C12.7859989,19.784 13.1459953,19.8346662 13.4659969,19.936 C13.7859985,20.0373338 14.0606625,20.1933323 14.2899969,20.404 C14.5193314,20.6146677 14.6953297,20.882665 14.8179969,21.208 C14.9406642,21.533335 15.0019969,21.9199978 15.0019969,22.368 C15.0019969,22.8160022 14.9406642,23.2053317 14.8179969,23.536 C14.6953297,23.8666683 14.5219981,24.1399989 14.2979969,24.356 C14.0739958,24.5720011 13.8059985,24.7333328 13.4939969,24.84 C13.1819954,24.9466672 12.8339989,25 12.4499969,25 L10.9139969,25 L10.9139969,19.784 Z M12.3139969,24.048 C12.5379981,24.048 12.7406627,24.018667 12.9219969,23.96 C13.1033312,23.901333 13.2579963,23.8066673 13.3859969,23.676 C13.5139976,23.5453327 13.6139966,23.3733344 13.6859969,23.16 C13.7579973,22.9466656 13.7939969,22.6826682 13.7939969,22.368 C13.7939969,22.0586651 13.7579973,21.7986677 13.6859969,21.588 C13.6139966,21.3773323 13.5139976,21.209334 13.3859969,21.084 C13.2579963,20.958666 13.1033312,20.8693336 12.9219969,20.816 C12.7406627,20.7626664 12.5379981,20.736 12.3139969,20.736 L12.0899969,20.736 L12.0899969,24.048 L12.3139969,24.048 Z M15.9939969,19.784 L19.2819969,19.784 L19.2819969,20.776 L17.1699969,20.776 L17.1699969,21.984 L18.9779969,21.984 L18.9779969,22.976 L17.1699969,22.976 L17.1699969,25 L15.9939969,25 L15.9939969,19.784 Z" id="PDF" fill="#FF3F3F" sketch:type="MSShapeGroup"></path>
            </g>
            <g id="binary" sketch:type="MSLayerGroup" transform="translate(259.000000, 0.000000)">
                <g id="file-copy-5" sketch:type="MSShapeGroup">
                    <path d="M1,1 L19,1 L25,7 L25,31 L1,31 L1,1 Z" id="Rectangle-108" fill="#FFFFFF"></path>
                    <path d="M18,1 L1,1 L1,31 L25,31 L25,8 L18,8 L18,1 Z M19,1.5 L24.5,7 L19,7 L19,1.5 Z M0,0.992786407 C0,0.444485615 0.450925395,0 0.994771168,0 L19,0 L26,7 L26,31.004543 C26,31.5543187 25.5487213,32 24.9967004,32 L1.00329963,32 C0.449192547,32 0,31.5476379 0,31.0072136 L0,0.992786407 Z" id="Rectangle-20" fill="#B2C5DB"></path>
                </g>
                <path d="M4,15.5675676 C4,14.971332 4.05925097,14.4488147 4.17775468,14 C4.29625839,13.5511853 4.46309664,13.1793627 4.67827443,12.8845209 C4.89345222,12.5896791 5.15072615,12.3685511 5.45010395,12.2211302 C5.74948175,12.0737093 6.08315824,12 6.45114345,12 C7.23701017,12 7.84199372,12.2899234 8.26611227,12.8697789 C8.69023081,13.4496343 8.9022869,14.3488883 8.9022869,15.5675676 C8.9022869,16.1703552 8.84303594,16.6961485 8.72453222,17.1449631 C8.60602851,17.5937778 8.43919027,17.9672385 8.22401247,18.2653563 C8.00883468,18.5634741 7.75000151,18.78624 7.4475052,18.9336609 C7.14500888,19.0810818 6.80977315,19.1547912 6.44178794,19.1547912 C5.64968419,19.1547912 5.04470063,18.8484879 4.62681913,18.2358722 C4.20893762,17.6232566 4,16.7338306 4,15.5675676 L4,15.5675676 Z M7.7047817,15.5675676 C7.7047817,15.4627349 7.70322247,15.3628178 7.70010395,15.2678133 C7.69698543,15.1728087 7.69230772,15.0794435 7.68607069,14.987715 L5.39397089,17.1793612 C5.58731905,17.7755968 5.93970638,18.0737101 6.45114345,18.0737101 C6.85031385,18.0737101 7.15904257,17.8738759 7.37733888,17.4742015 C7.59563519,17.0745271 7.7047817,16.4389888 7.7047817,15.5675676 L7.7047817,15.5675676 Z M5.1975052,15.5675676 C5.1975052,15.6658482 5.19906443,15.7592133 5.20218295,15.8476658 C5.20530147,15.9361184 5.20997918,16.0262076 5.21621622,16.1179361 L7.4989605,13.9262899 C7.31184938,13.3628145 6.95946205,13.0810811 6.44178794,13.0810811 C6.04261755,13.0810811 5.73544806,13.2825533 5.52027027,13.6855037 C5.30509248,14.0884541 5.1975052,14.7158025 5.1975052,15.5675676 L5.1975052,15.5675676 Z M10.5488565,15.5675676 C10.5488565,14.971332 10.6081075,14.4488147 10.7266112,14 C10.8451149,13.5511853 11.0119532,13.1793627 11.227131,12.8845209 C11.4423088,12.5896791 11.6995827,12.3685511 11.9989605,12.2211302 C12.2983383,12.0737093 12.6320148,12 13,12 C13.7858667,12 14.3908503,12.2899234 14.8149688,12.8697789 C15.2390874,13.4496343 15.4511435,14.3488883 15.4511435,15.5675676 C15.4511435,16.1703552 15.3918925,16.6961485 15.2733888,17.1449631 C15.1548851,17.5937778 14.9880468,17.9672385 14.772869,18.2653563 C14.5576912,18.5634741 14.2988581,18.78624 13.9963617,18.9336609 C13.6938654,19.0810818 13.3586297,19.1547912 12.9906445,19.1547912 C12.1985407,19.1547912 11.5935572,18.8484879 11.1756757,18.2358722 C10.7577942,17.6232566 10.5488565,16.7338306 10.5488565,15.5675676 L10.5488565,15.5675676 Z M14.2536383,15.5675676 C14.2536383,15.4627349 14.252079,15.3628178 14.2489605,15.2678133 C14.245842,15.1728087 14.2411643,15.0794435 14.2349272,14.987715 L11.9428274,17.1793612 C12.1361756,17.7755968 12.4885629,18.0737101 13,18.0737101 C13.3991704,18.0737101 13.7078991,17.8738759 13.9261954,17.4742015 C14.1444917,17.0745271 14.2536383,16.4389888 14.2536383,15.5675676 L14.2536383,15.5675676 Z M11.7463617,15.5675676 C11.7463617,15.6658482 11.747921,15.7592133 11.7510395,15.8476658 C11.754158,15.9361184 11.7588357,16.0262076 11.7650728,16.1179361 L14.047817,13.9262899 C13.8607059,13.3628145 13.5083186,13.0810811 12.9906445,13.0810811 C12.5914741,13.0810811 12.2843046,13.2825533 12.0691268,13.6855037 C11.853949,14.0884541 11.7463617,14.7158025 11.7463617,15.5675676 L11.7463617,15.5675676 Z M17.7338877,17.9361179 L19.1652807,17.9361179 L19.1652807,13.6412776 L17.9303534,14.6339066 L17.3690229,13.8476658 L19.502079,12.1375921 L20.3253638,12.1375921 L20.3253638,17.9361179 L21.7286902,17.9361179 L21.7286902,19.017199 L17.7338877,19.017199 L17.7338877,17.9361179 Z M4,24.4127764 C4,23.8165408 4.05925097,23.2940235 4.17775468,22.8452088 C4.29625839,22.3963942 4.46309664,22.0245715 4.67827443,21.7297297 C4.89345222,21.434888 5.15072615,21.21376 5.45010395,21.0663391 C5.74948175,20.9189182 6.08315824,20.8452088 6.45114345,20.8452088 C7.23701017,20.8452088 7.84199372,21.1351322 8.26611227,21.7149877 C8.69023081,22.2948432 8.9022869,23.1940971 8.9022869,24.4127764 C8.9022869,25.015564 8.84303594,25.5413573 8.72453222,25.990172 C8.60602851,26.4389867 8.43919027,26.8124473 8.22401247,27.1105651 C8.00883468,27.4086829 7.75000151,27.6314489 7.4475052,27.7788698 C7.14500888,27.9262907 6.80977315,28 6.44178794,28 C5.64968419,28 5.04470063,27.6936968 4.62681913,27.0810811 C4.20893762,26.4684654 4,25.5790394 4,24.4127764 L4,24.4127764 Z M7.7047817,24.4127764 C7.7047817,24.3079438 7.70322247,24.2080267 7.70010395,24.1130221 C7.69698543,24.0180175 7.69230772,23.9246524 7.68607069,23.8329238 L5.39397089,26.02457 C5.58731905,26.6208056 5.93970638,26.9189189 6.45114345,26.9189189 C6.85031385,26.9189189 7.15904257,26.7190847 7.37733888,26.3194103 C7.59563519,25.9197359 7.7047817,25.2841976 7.7047817,24.4127764 L7.7047817,24.4127764 Z M5.1975052,24.4127764 C5.1975052,24.511057 5.19906443,24.6044222 5.20218295,24.6928747 C5.20530147,24.7813272 5.20997918,24.8714164 5.21621622,24.963145 L7.4989605,22.7714988 C7.31184938,22.2080234 6.95946205,21.9262899 6.44178794,21.9262899 C6.04261755,21.9262899 5.73544806,22.1277621 5.52027027,22.5307125 C5.30509248,22.9336629 5.1975052,23.5610113 5.1975052,24.4127764 L5.1975052,24.4127764 Z M11.1850312,26.7813268 L12.6164241,26.7813268 L12.6164241,22.4864865 L11.3814969,23.4791155 L10.8201663,22.6928747 L12.9532225,20.982801 L13.7765073,20.982801 L13.7765073,26.7813268 L15.1798337,26.7813268 L15.1798337,27.8624079 L11.1850312,27.8624079 L11.1850312,26.7813268 Z M17.0977131,24.4127764 C17.0977131,23.8165408 17.1569641,23.2940235 17.2754678,22.8452088 C17.3939715,22.3963942 17.5608097,22.0245715 17.7759875,21.7297297 C17.9911653,21.434888 18.2484393,21.21376 18.547817,21.0663391 C18.8471948,20.9189182 19.1808713,20.8452088 19.5488565,20.8452088 C20.3347233,20.8452088 20.9397068,21.1351322 21.3638254,21.7149877 C21.7879439,22.2948432 22,23.1940971 22,24.4127764 C22,25.015564 21.940749,25.5413573 21.8222453,25.990172 C21.7037416,26.4389867 21.5369034,26.8124473 21.3217256,27.1105651 C21.1065478,27.4086829 20.8477146,27.6314489 20.5452183,27.7788698 C20.242722,27.9262907 19.9074862,28 19.539501,28 C18.7473973,28 18.1424137,27.6936968 17.7245322,27.0810811 C17.3066507,26.4684654 17.0977131,25.5790394 17.0977131,24.4127764 L17.0977131,24.4127764 Z M20.8024948,24.4127764 C20.8024948,24.3079438 20.8009356,24.2080267 20.797817,24.1130221 C20.7946985,24.0180175 20.7900208,23.9246524 20.7837838,23.8329238 L18.491684,26.02457 C18.6850322,26.6208056 19.0374195,26.9189189 19.5488565,26.9189189 C19.9480269,26.9189189 20.2567557,26.7190847 20.475052,26.3194103 C20.6933483,25.9197359 20.8024948,25.2841976 20.8024948,24.4127764 L20.8024948,24.4127764 Z M18.2952183,24.4127764 C18.2952183,24.511057 18.2967775,24.6044222 18.299896,24.6928747 C18.3030146,24.7813272 18.3076923,24.8714164 18.3139293,24.963145 L20.5966736,22.7714988 C20.4095625,22.2080234 20.0571751,21.9262899 19.539501,21.9262899 C19.1403306,21.9262899 18.8331612,22.1277621 18.6179834,22.5307125 C18.4028056,22.9336629 18.2952183,23.5610113 18.2952183,24.4127764 L18.2952183,24.4127764 Z" id="0010" fill="#4F5B69" sketch:type="MSShapeGroup"></path>
            </g>
            <g id="audio" sketch:type="MSLayerGroup" transform="translate(289.000000, 1.000000)">
                <rect id="Rectangle-117" fill="#FFFFFF" sketch:type="MSShapeGroup" x="1" y="1" width="28" height="28"></rect>
                <path d="M0,0.998153687 C0,0.446888627 0.447365195,0 0.998153687,0 L29.0018463,0 C29.5531114,0 30,0.447365195 30,0.998153687 L30,29.0018463 C30,29.5531114 29.5526348,30 29.0018463,30 L0.998153687,30 C0.446888627,30 0,29.5526348 0,29.0018463 L0,0.998153687 Z M1,1 L29,1 L29,29 L1,29 L1,1 Z" id="Rectangle-95" fill="#B2C5DB" sketch:type="MSShapeGroup"></path>
                <path d="M12,20.5 C12,21.8807119 10.6568542,23 9,23 C7.34314575,23 6,21.8807119 6,20.5 C6,19.1192881 7.34314575,18 9,18 C9.35063542,18 9.68722107,18.0501285 10,18.1422548 L10,9.5 C10,9.5 14.5,7 20,7 C21,7 22,7.5 22,8 L22,19.5 C22,20.8807119 20.6568542,22 19,22 C17.3431458,22 16,20.8807119 16,19.5 C16,18.1192881 17.3431458,17 19,17 C19.3506354,17 19.6872211,17.0501285 20,17.1422548 L20,12 C13.5,12 12,14 12,14 L12,20.5 Z" id="music" fill="#43D9CC" sketch:type="MSShapeGroup"></path>
            </g>
            <g id="video" sketch:type="MSLayerGroup" transform="translate(321.000000, 1.000000)">
                <rect id="Rectangle-117" fill="#FFFFFF" sketch:type="MSShapeGroup" x="1" y="1" width="28" height="28"></rect>
                <path d="M0,0.998153687 C0,0.446888627 0.447365195,0 0.998153687,0 L29.0018463,0 C29.5531114,0 30,0.447365195 30,0.998153687 L30,29.0018463 C30,29.5531114 29.5526348,30 29.0018463,30 L0.998153687,30 C0.446888627,30 0,29.5526348 0,29.0018463 L0,0.998153687 Z M1,1 L29,1 L29,29 L1,29 L1,1 Z" id="Rectangle-95" fill="#B2C5DB" sketch:type="MSShapeGroup"></path>
                <path d="M11,9.61464155 C11,9.06099084 11.3798008,8.84004874 11.8525944,9.12372488 L20.1474056,14.1006116 C20.6182805,14.3831366 20.6201992,14.8400487 20.1474056,15.1237249 L11.8525944,20.1006116 C11.3817195,20.3831366 11,20.1564073 11,19.609695 L11,9.61464155 Z" id="Rectangle-126" fill="#FF405D" sketch:type="MSShapeGroup"></path>
                <path d="M5,1 L6,1 L6,29 L5,29 L5,1 Z M1,23 L5,23 L5,24 L1,24 L1,23 Z M1,17 L5,17 L5,18 L1,18 L1,17 Z M1,12 L5,12 L5,13 L1,13 L1,12 Z M1,6 L5,6 L5,7 L1,7 L1,6 Z" id="Rectangle-116" fill="#B2C5DB" sketch:type="MSShapeGroup"></path>
                <path d="M24,1 L25,1 L25,29 L24,29 L24,1 Z M25,23 L29,23 L29,24 L25,24 L25,23 Z M25,17 L29,17 L29,18 L25,18 L25,17 Z M25,12 L29,12 L29,13 L25,13 L25,12 Z M25,6 L29,6 L29,7 L25,7 L25,6 Z" id="Rectangle-116-Copy" fill="#B2C5DB" sketch:type="MSShapeGroup"></path>
            </g>
            <g id="images" sketch:type="MSLayerGroup" transform="translate(352.000000, 3.000000)">
                <rect id="Rectangle-108-Copy-8" fill="#FFFFFF" sketch:type="MSShapeGroup" x="1" y="1" width="30" height="24"></rect>
                <path d="M0,1.00329963 C0,0.449192547 0.452362061,0 0.992786407,0 L31.0072136,0 C31.5555144,0 32,0.451278687 32,1.00329963 L32,24.9967004 C32,25.5508075 31.5476379,26 31.0072136,26 L0.992786407,26 C0.444485615,26 0,25.5487213 0,24.9967004 L0,1.00329963 Z M1,1 L31,1 L31,25 L1,25 L1,1 Z" id="Rectangle-51" fill="#B2C5DB" sketch:type="MSShapeGroup"></path>
                <path d="M4,16 L6.28904188,13.7109581 C6.68169321,13.3183068 7.31387329,13.3138733 7.70591205,13.7059121 L10.2940879,16.2940879 C10.6839524,16.6839524 11.3203148,16.6796852 11.7062149,16.2937851 L19.2937851,8.7062149 C19.6838168,8.31618318 20.3235178,8.3235178 20.7099466,8.70994663 L28,16 L28,22 L4,22 L4,16 Z" id="Path-8" fill="#76D43B" sketch:type="MSShapeGroup"></path>
                <circle id="Oval-1" fill="#FFC619" sketch:type="MSShapeGroup" cx="6.5" cy="7.5" r="2.5"></circle>
            </g>
        </g>
    </g>
</svg>